<svg id="visual" viewBox="0 0 900 600" width="900" height="600" xmlns="http://www.w3.org/2000/svg" xmlns:xlink="http://www.w3.org/1999/xlink" version="1.1"><path d="M0 278L25 276.8C50 275.7 100 273.3 150 289.3C200 305.3 250 339.7 300 349.7C350 359.7 400 345.3 450 328.8C500 312.3 550 293.7 600 289.7C650 285.7 700 296.3 750 306.2C800 316 850 325 875 329.5L900 334L900 601L875 601C850 601 800 601 750 601C700 601 650 601 600 601C550 601 500 601 450 601C400 601 350 601 300 601C250 601 200 601 150 601C100 601 50 601 25 601L0 601Z" fill="#004ab9" stroke-linecap="round" stroke-linejoin="miter"></path></svg>